<svg width="179" height="32" viewBox="0 0 179 32" fill="none" xmlns="http://www.w3.org/2000/svg">
<g id="logo.d04fdce 1" clip-path="url(#clip0_7_5355)">
<g id="Clip path group">
<mask id="mask0_7_5355" style="mask-type:luminance" maskUnits="userSpaceOnUse" x="0" y="0" width="179" height="32">
<g id="clip0_143_1810">
<path id="Vector" d="M178.106 0.666992H0V31.3409H178.106V0.666992Z" fill="white"/>
</g>
</mask>
<g mask="url(#mask0_7_5355)">
<g id="Group">
<path id="Vector_2" d="M0.111816 24.8474L0.984133 23.3363L6.4133 13.1135L6.99112 11.9691C7.15917 11.6329 7.39287 11.1512 7.69538 10.5205C8.92622 10.5349 9.82574 10.5413 10.3924 10.5413C11.3783 10.5413 12.2923 10.5349 13.1309 10.5205L14.6628 14.8965L17.7775 23.3139L18.3856 24.8458C17.174 24.8328 16.4377 24.8248 16.18 24.8248C15.5911 24.8248 14.7268 24.8314 13.5854 24.8458C13.2782 23.6918 12.8349 22.3344 12.2554 20.7739H6.9703C6.36208 22.0047 5.73306 23.3619 5.08322 24.8458C3.78035 24.8328 2.98166 24.8248 2.68716 24.8248C2.15416 24.8248 1.29624 24.8314 0.113417 24.8458M8.23957 17.72H11.5C10.6901 15.255 10.2467 13.8961 10.1699 13.6449C9.7089 14.6708 9.31676 15.5126 8.99504 16.1691L8.23957 17.72Z" fill="#009CA8"/>
<path id="Vector_3" d="M19.5304 24.8466L19.7385 22.1592L20.0089 16.9125L20.1243 13.1976C20.1305 12.799 20.1354 12.4005 20.1354 12.0003C20.1354 11.6994 20.1323 11.2065 20.1243 10.5198C21.0477 10.5406 21.7904 10.5518 22.3507 10.5518C22.9108 10.5518 23.6279 10.5358 24.5659 10.5054C25.5037 10.4734 26.2977 10.459 26.9491 10.459C27.887 10.459 28.5817 10.5182 29.033 10.6366C29.4845 10.7567 29.8926 10.9424 30.2559 11.1984C30.6193 11.4545 30.9201 11.7522 31.1586 12.0964C31.3971 12.439 31.5748 12.8294 31.6949 13.2665C31.8133 13.7034 31.8725 14.1499 31.8725 14.6046C31.8725 15.5424 31.6453 16.3987 31.1906 17.1751C30.7361 17.9514 30.0958 18.5323 29.2699 18.9165C28.4441 19.3022 27.5174 19.4943 26.4882 19.4943C26.1104 19.4943 25.6734 19.4527 25.1756 19.3678C25.1196 19.0462 25.014 18.5675 24.8603 17.9304C24.7067 17.2935 24.5803 16.8212 24.4826 16.514C24.7899 16.5765 25.1116 16.6084 25.4478 16.6084C26.1552 16.6084 26.6818 16.4387 27.0275 16.0995C27.3733 15.7602 27.5478 15.3456 27.5478 14.8557C27.5478 14.6173 27.5093 14.406 27.4324 14.2204C27.3557 14.0347 27.2323 13.8825 27.0659 13.7641C26.8979 13.6457 26.7122 13.5689 26.509 13.5337C26.3056 13.4985 26.0751 13.4809 25.8159 13.4809C25.5566 13.4809 25.302 13.4873 25.0284 13.5017L24.1464 13.5641C24.0568 14.9151 23.9864 16.4147 23.9384 18.0665C23.8488 21.0756 23.8039 22.8812 23.8039 23.4813V24.845L21.7136 24.8242C21.4191 24.8242 20.6908 24.8306 19.5288 24.845" fill="#009CA8"/>
<path id="Vector_4" d="M33.2472 24.8466L33.4553 22.1592L33.7257 16.9125L33.8411 13.1976C33.8473 12.799 33.8523 12.4005 33.8523 12.0003C33.8523 11.6994 33.8491 11.2065 33.8411 10.5198C34.7645 10.5406 35.5072 10.5518 36.0673 10.5518C36.6276 10.5518 37.3447 10.5358 38.2827 10.5054C39.2206 10.4734 40.0144 10.459 40.6659 10.459C41.6038 10.459 42.2985 10.5182 42.7498 10.6366C43.2013 10.7567 43.6094 10.9424 43.9727 11.1984C44.3361 11.4545 44.6369 11.7522 44.8754 12.0964C45.1139 12.439 45.2916 12.8294 45.4117 13.2665C45.5301 13.7034 45.5892 14.1499 45.5892 14.6046C45.5892 15.5424 45.3619 16.3987 44.9075 17.1751C44.4529 17.9514 43.8126 18.5323 42.9867 18.9165C42.1609 19.3022 41.2341 19.4943 40.2048 19.4943C39.8271 19.4943 39.3902 19.4527 38.8924 19.3678C38.8364 19.0462 38.7308 18.5675 38.5771 17.9304C38.4235 17.2935 38.2971 16.8212 38.1994 16.514C38.5067 16.5765 38.8284 16.6084 39.1646 16.6084C39.8705 16.6084 40.3986 16.4387 40.7443 16.0995C41.0901 15.7602 41.2646 15.3456 41.2646 14.8557C41.2646 14.6173 41.2261 14.406 41.1492 14.2204C41.0725 14.0347 40.9491 13.8825 40.7827 13.7641C40.6147 13.6457 40.429 13.5689 40.2258 13.5337C40.0224 13.4985 39.7919 13.4809 39.5327 13.4809C39.2734 13.4809 39.0188 13.4873 38.7452 13.5017L37.8632 13.5641C37.7736 14.9151 37.7032 16.4147 37.6552 18.0665C37.5656 21.0756 37.5207 22.8812 37.5207 23.4813V24.845L35.4304 24.8242C35.1359 24.8242 34.4076 24.8306 33.2456 24.845" fill="#009CA8"/>
<path id="Vector_5" d="M46.7962 24.628C46.705 23.138 46.5994 21.9455 46.481 21.0491C47.2651 21.3997 47.9646 21.6413 48.5777 21.779C49.1907 21.915 49.7285 21.9838 50.191 21.9838C50.8009 21.9838 51.2858 21.8942 51.6476 21.7166C52.0093 21.5373 52.1887 21.2733 52.1887 20.9242C52.1887 20.8058 52.1711 20.6922 52.1357 20.5834C52.1005 20.4745 52.0349 20.3529 51.9357 20.2151C51.8381 20.0791 51.6972 19.9303 51.5147 19.7686L49.5381 18.048C49.0754 17.6559 48.7522 17.3726 48.5697 17.1982C48.1984 16.8411 47.9086 16.5099 47.7022 16.201C47.4957 15.8936 47.3437 15.5799 47.2491 15.2614C47.1547 14.943 47.1068 14.6053 47.1068 14.2483C47.1068 13.8226 47.1819 13.4031 47.3325 12.995C47.4829 12.5852 47.7086 12.2027 48.0094 11.8458C48.3103 11.4889 48.7089 11.1815 49.2068 10.9223C49.7029 10.6629 50.2344 10.4869 50.8025 10.3925C51.369 10.298 51.9533 10.25 52.5552 10.25C53.738 10.25 55.0248 10.3861 56.4174 10.6598C56.4381 11.1416 56.4621 11.5848 56.491 11.9867C56.5198 12.3884 56.5853 13.0942 56.6911 14.101C56.0476 13.8418 55.4601 13.6624 54.9272 13.56C54.3957 13.4592 53.9364 13.4079 53.5523 13.4079C53.0065 13.4079 52.5536 13.5104 52.1934 13.712C51.8333 13.9154 51.6524 14.1667 51.6524 14.4675C51.6524 14.6068 51.6812 14.7444 51.7357 14.8774C51.7917 15.0102 51.8973 15.1654 52.0509 15.3447C52.2046 15.5223 52.4079 15.7191 52.6591 15.932C52.9105 16.145 53.3058 16.4619 53.8452 16.8813L54.6007 17.4798C54.8246 17.6623 55.0664 17.8817 55.3241 18.1408C55.5835 18.4002 55.8075 18.6546 55.9964 18.9076C56.1852 19.1588 56.3309 19.3909 56.4317 19.6006C56.5325 19.8102 56.6079 20.0215 56.6575 20.2361C56.7054 20.4489 56.7311 20.6778 56.7311 20.9242C56.7311 21.5533 56.5805 22.1536 56.2796 22.7233C55.9788 23.2932 55.5513 23.7621 54.9992 24.1302C54.4471 24.4968 53.8388 24.7545 53.1777 24.9017C52.5168 25.0489 51.8189 25.1226 51.0842 25.1226C49.951 25.1226 48.5201 24.9577 46.7914 24.6296" fill="#009CA8"/>
<path id="Vector_6" d="M72.9099 21.3533C72.8265 21.7646 72.7241 22.3392 72.6057 23.0739C72.4857 23.8101 72.4056 24.3798 72.364 24.7849C70.8674 25.0091 69.5294 25.121 68.3546 25.121C67.1797 25.121 66.1666 24.9785 65.1902 24.6953C64.2138 24.412 63.3191 23.9461 62.5028 23.2996C61.6882 22.6529 61.1055 21.891 60.7549 21.0172C60.4044 20.1433 60.23 19.1637 60.23 18.0784C60.23 16.8123 60.4668 15.6727 60.9389 14.6628C61.4112 13.6513 62.0899 12.8093 62.975 12.1339C63.8602 11.4585 64.83 10.9767 65.8881 10.6854C66.9445 10.3957 68.0361 10.25 69.1629 10.25C70.1983 10.25 71.4789 10.3829 73.0042 10.6486L73.025 11.5305C73.0394 11.9162 73.0602 12.3387 73.0874 12.7997L73.161 13.997C72.3416 13.8016 71.6789 13.6672 71.1716 13.5984C70.6642 13.528 70.1936 13.4944 69.7598 13.4944C68.8155 13.4944 67.9655 13.6832 67.2101 14.061C66.4546 14.4387 65.8592 14.9878 65.4255 15.7079C64.9918 16.4282 64.774 17.227 64.774 18.1009C64.774 18.898 64.9564 19.583 65.3198 20.1529C65.6831 20.7226 66.1762 21.1644 66.7939 21.4749C67.4134 21.787 68.1769 21.9422 69.0875 21.9422C69.5838 21.9422 70.1247 21.9022 70.709 21.8222C71.2932 21.7422 72.0262 21.5853 72.9082 21.3549" fill="#00263A"/>
<path id="Vector_7" d="M77.9484 24.8474C78.0188 24.2807 78.102 23.3187 78.2013 21.9615C78.299 20.6041 78.3486 19.6455 78.3486 19.0852L73.542 10.5205C74.5984 10.5349 75.4675 10.5413 76.1526 10.5413C76.8376 10.5413 77.5963 10.5349 78.5118 10.5205C78.7919 11.2199 79.1712 12.0539 79.6498 13.0223C80.1283 13.9905 80.519 14.8565 80.8198 15.62C81.6248 14.2002 82.2715 13.0926 82.7614 12.2988C83.2511 11.5049 83.5999 10.9127 83.8097 10.5205C84.6995 10.5349 85.5543 10.5413 86.3738 10.5413C86.8076 10.5413 87.5966 10.5349 88.7378 10.5205L84.1298 17.3101C83.2127 18.6674 82.755 19.3781 82.755 19.4405L82.7438 19.5463V19.6501L82.7325 19.7559L82.6589 21.3516C82.6109 22.4081 82.5725 23.5733 82.5436 24.8474C81.5561 24.8328 80.7942 24.8266 80.2549 24.8266C79.7154 24.8266 78.9311 24.8328 77.9452 24.8474" fill="#00263A"/>
<path id="Vector_8" d="M101.185 21.3533C101.101 21.7646 101 22.3392 100.881 23.0739C100.762 23.8101 100.682 24.3798 100.64 24.7849C99.142 25.0091 97.8067 25.121 96.6303 25.121C95.4539 25.121 94.4425 24.9785 93.466 24.6953C92.4897 24.412 91.5949 23.9461 90.7787 23.2996C89.9639 22.6529 89.3813 21.891 89.0308 21.0172C88.6803 20.1433 88.5059 19.1637 88.5059 18.0784C88.5059 16.8123 88.7427 15.6727 89.2148 14.6628C89.6871 13.6513 90.3656 12.8093 91.2508 12.1339C92.1359 11.4585 93.1075 10.9767 94.1639 10.6854C95.2202 10.3957 96.3118 10.25 97.4386 10.25C98.4742 10.25 99.7544 10.3829 101.28 10.6486L101.301 11.5305C101.315 11.9162 101.336 12.3387 101.363 12.7997L101.436 13.997C100.617 13.8016 99.9543 13.6672 99.4476 13.5984C98.94 13.528 98.4694 13.4944 98.0357 13.4944C97.0913 13.4944 96.2414 13.6832 95.4859 14.061C94.7304 14.4387 94.135 14.9878 93.7013 15.7079C93.2675 16.4282 93.0499 17.227 93.0499 18.1009C93.0499 18.898 93.2307 19.583 93.5956 20.1529C93.9589 20.7226 94.4503 21.1644 95.0697 21.4749C95.6893 21.787 96.4543 21.9422 97.3634 21.9422C97.8595 21.9422 98.4006 21.9022 98.9846 21.8222C99.5694 21.7422 100.302 21.5853 101.184 21.3549" fill="#00263A"/>
<path id="Vector_9" d="M103.084 24.8467C103.26 23.1949 103.387 21.8488 103.463 20.8068C103.61 18.9037 103.721 17.0118 103.794 15.1344C103.869 13.2553 103.905 11.7187 103.905 10.5215C104.856 10.5359 105.697 10.5423 106.432 10.5423C106.928 10.5423 107.643 10.5359 108.573 10.5215L108.319 14.3213L108.004 20.2626L107.962 21.7208C109.166 21.7416 109.95 21.7528 110.314 21.7528C112.155 21.7528 113.549 21.7288 114.493 21.6792L114.262 24.8483C112.422 24.8339 110.669 24.8275 109.004 24.8275C106.751 24.8275 104.777 24.8339 103.086 24.8483" fill="#00263A"/>
<path id="Vector_10" d="M148.038 24.8469L148.248 22.6431L148.658 15.1698L148.772 12.1576V10.5202C149.859 10.5346 150.818 10.541 151.653 10.541C152.249 10.541 153.087 10.5346 154.167 10.5202L158.647 18.6672L159.264 19.8643C159.343 18.688 159.424 17.0409 159.506 14.9186C159.59 12.7978 159.628 11.3317 159.628 10.5186C160.489 10.533 161.178 10.5394 161.694 10.5394C161.933 10.5394 162.616 10.533 163.749 10.5186L163.497 13.646L163.026 22.3356L162.964 24.8438C162.053 24.8293 161.203 24.8229 160.411 24.8229C159.755 24.8229 158.843 24.8293 157.681 24.8438C157.318 24.1586 157.049 23.661 156.876 23.3536L155.114 20.3605C154.535 19.381 154 18.443 153.51 17.5467C153.188 16.9801 152.857 16.3576 152.515 15.6773L152.289 20.6534L152.183 24.8422C151.314 24.8277 150.656 24.8213 150.201 24.8213C149.817 24.8213 149.097 24.8277 148.042 24.8422" fill="#00263A"/>
<path id="Vector_11" d="M165.659 24.8474C165.835 23.0419 165.963 21.5308 166.043 20.3128C166.123 19.0948 166.204 17.4766 166.284 15.4582C166.364 13.4399 166.406 12.1019 166.406 11.444L166.395 10.5205C168.045 10.5349 170.042 10.5413 172.387 10.5413C174.55 10.5413 176.456 10.5349 178.106 10.5205L178.086 10.8662C178.079 10.9495 178.062 11.2536 178.032 11.777L177.971 12.9166C177.956 13.1615 177.948 13.408 177.948 13.6593C176.599 13.6031 175.465 13.5759 174.547 13.5759C173.542 13.5759 172.86 13.5759 172.508 13.5809C172.154 13.5841 171.603 13.6001 170.855 13.6289L170.725 16.0425C171.552 16.0633 172.514 16.0745 173.613 16.0745C174.006 16.0745 175.048 16.0506 176.743 16.0009C176.672 16.8972 176.607 17.9632 176.543 19.202C175.333 19.1876 174.402 19.1812 173.753 19.1812C172.787 19.1812 171.707 19.2052 170.51 19.2548L170.386 21.8061H171.591C171.948 21.8061 172.687 21.795 173.806 21.7742L175.977 21.7214C176.3 21.7149 176.836 21.6861 177.592 21.6366C177.509 22.6722 177.439 23.7428 177.383 24.8474C175.674 24.8328 173.803 24.8266 171.768 24.8266L167.151 24.8362L165.66 24.8474H165.659Z" fill="#00263A"/>
<path id="Vector_12" d="M4.33918 6.19661L3.02029 1.76301L1.69502 6.19661L0 0.837869H0.296108L1.68061 5.16104L3.02029 0.740234L4.35358 5.16104L5.73808 0.837869H6.04859L4.33918 6.19661Z" fill="#00263A"/>
<path id="Vector_13" d="M10.3734 6.12301V3.36841H7.46359V6.12301H7.16748V0.837891H7.46359V3.0659H10.3734V0.837891H10.6759V6.12301H10.3734Z" fill="#00263A"/>
<path id="Vector_14" d="M11.6987 6.12301V0.837891H14.2372V1.1404H12.0012V3.0659H14.2372V3.39083H12.0012V5.8189H14.2372V6.12301H11.6987Z" fill="#00263A"/>
<path id="Vector_15" d="M17.7839 6.12364L16.1034 3.47947H15.5335V6.12364H15.2373V0.836914H16.4587C16.6555 0.836914 16.8427 0.865725 17.0221 0.921746C17.1998 0.977766 17.3518 1.0626 17.4814 1.17304C17.6095 1.28348 17.7119 1.42112 17.7887 1.58439C17.8655 1.74764 17.9041 1.93491 17.9041 2.14619C17.9041 2.37828 17.8687 2.57835 17.7967 2.74641C17.7247 2.91447 17.6239 3.05212 17.4926 3.16096C17.3614 3.2698 17.2078 3.34983 17.03 3.40104C16.8523 3.45226 16.6571 3.47947 16.4459 3.47947L18.1409 6.12364H17.7856H17.7839ZM17.5022 1.69963C17.443 1.57318 17.3614 1.47075 17.2572 1.38911C17.1534 1.30749 17.0333 1.24666 16.8941 1.20345C16.7563 1.16183 16.6075 1.14103 16.4507 1.14103H15.5319V3.17696H16.5307C16.8459 3.17696 17.102 3.08893 17.2974 2.90967C17.4926 2.732 17.5903 2.47592 17.5903 2.13978C17.5903 1.97173 17.5598 1.82447 17.5006 1.69963" fill="#00263A"/>
<path id="Vector_16" d="M19.1543 6.12301V0.837891H21.6929V1.1404H19.4569V3.0659H21.6929V3.39083H19.4569V5.8189H21.6929V6.12301H19.1543Z" fill="#00263A"/>
<path id="Vector_17" d="M29.3485 5.81253C29.0715 6.0142 28.697 6.13745 28.2233 6.18227C28.1688 6.18706 28.1096 6.19026 28.0455 6.19347C27.9815 6.19507 27.9143 6.19667 27.8455 6.19667C27.0452 6.19667 26.3938 5.94537 25.8912 5.44119C25.3821 4.9322 25.1294 4.27917 25.1294 3.47888C25.1294 2.67858 25.3805 2.02715 25.8848 1.52457C26.3921 1.01559 27.0468 0.762695 27.8471 0.762695C28.3016 0.762695 28.7114 0.82992 29.0763 0.962769C29.2941 1.046 29.5038 1.16764 29.7054 1.3245V1.70223C29.4973 1.52938 29.2716 1.39172 29.0235 1.28769C28.649 1.13403 28.2569 1.0588 27.8471 1.0588C27.146 1.0588 26.5683 1.28609 26.1152 1.74066C25.6607 2.19522 25.4335 2.77463 25.4335 3.48048C25.4335 4.18634 25.6575 4.76414 26.1072 5.21231C26.5619 5.66687 27.1412 5.89416 27.8471 5.89416C28.2873 5.89416 28.6698 5.81573 28.9947 5.65727C29.1819 5.56285 29.4188 5.41238 29.7054 5.20591V5.55483L29.3501 5.81413L29.3485 5.81253Z" fill="#00263A"/>
<path id="Vector_18" d="M34.6638 5.43479C34.1547 5.94377 33.5018 6.19667 32.7016 6.19667C31.9013 6.19667 31.2498 5.94537 30.7473 5.44119C30.2382 4.9322 29.9854 4.27917 29.9854 3.47888C29.9854 2.67858 30.2366 2.02715 30.7407 1.52457C31.2498 1.01559 31.9029 0.762695 32.7031 0.762695C33.5034 0.762695 34.1517 1.01399 34.6654 1.51816C35.1744 2.02715 35.4273 2.6802 35.4273 3.48048C35.4273 4.28077 35.1727 4.9322 34.6654 5.43479M34.4509 1.74066C33.9963 1.28609 33.4138 1.0588 32.7031 1.0588C31.9925 1.0588 31.4242 1.28609 30.9712 1.74066C30.5167 2.19522 30.2894 2.77463 30.2894 3.48048C30.2894 4.18634 30.5135 4.76414 30.9633 5.21231C31.4178 5.66687 31.9972 5.89416 32.7031 5.89416C33.409 5.89416 33.9963 5.67167 34.4509 5.22831C34.9006 4.77855 35.1248 4.19754 35.1248 3.48048C35.1248 2.76343 34.9006 2.19042 34.4509 1.74066Z" fill="#00263A"/>
<path id="Vector_19" d="M40.9204 5.43479C40.4113 5.94377 39.7584 6.19667 38.9581 6.19667C38.1577 6.19667 37.508 5.94537 37.0037 5.44119C36.4947 4.9322 36.2402 4.27917 36.2402 3.47888C36.2402 2.67858 36.4916 2.02715 36.9957 1.52457C37.5047 1.01559 38.1577 0.762695 38.9581 0.762695C39.7584 0.762695 40.4065 1.01399 40.9204 1.51816C41.4293 2.02715 41.6823 2.6802 41.6823 3.48048C41.6823 4.28077 41.4279 4.9322 40.9204 5.43479ZM40.7058 1.74066C40.2513 1.28609 39.6686 1.0588 38.9581 1.0588C38.2474 1.0588 37.6792 1.28609 37.2263 1.74066C36.7717 2.19522 36.5444 2.77463 36.5444 3.48048C36.5444 4.18634 36.7685 4.76414 37.2182 5.21231C37.6728 5.66687 38.2523 5.89416 38.9581 5.89416C39.664 5.89416 40.2513 5.67167 40.7058 5.22831C41.1557 4.77855 41.3797 4.19754 41.3797 3.48048C41.3797 2.76343 41.1557 2.19042 40.7058 1.74066Z" fill="#00263A"/>
<path id="Vector_20" d="M42.8892 6.12301V0.837891H43.1854V5.8189H44.6738V6.12301H42.8892Z" fill="#00263A"/>
<path id="Vector_21" d="M48.4577 0.836914H48.1616V6.12364H48.4577V0.836914Z" fill="#00263A"/>
<path id="Vector_22" d="M52.981 5.32494C52.5361 5.85793 51.9567 6.12524 51.2413 6.12524H49.479V0.836914H51.2413C51.9519 0.836914 52.5297 1.10261 52.973 1.6372C53.3925 2.13498 53.6021 2.74801 53.6021 3.47307C53.6021 4.19813 53.3955 4.82076 52.9794 5.32334M52.757 1.84369C52.3713 1.36991 51.8654 1.13302 51.2396 1.13302H49.7735V5.81951H51.2396C51.7822 5.81951 52.2545 5.61785 52.653 5.2129C53.0819 4.77915 53.2964 4.19813 53.2964 3.47307C53.2964 2.82644 53.1156 2.28384 52.7554 1.84369" fill="#00263A"/>
<path id="Vector_23" d="M54.543 6.12301V0.837891H57.0832V1.1404H54.8472V3.0659H57.0832V3.39083H54.8472V5.8189H57.0832V6.12301H54.543Z" fill="#00263A"/>
<path id="Vector_24" d="M61.8064 6.12338L61.1998 4.53879H58.794L58.1795 6.12338H57.8833L59.9929 0.666992L62.1104 6.12338H61.8064ZM59.9929 1.43687L58.9125 4.23468H61.0748L59.9945 1.43687H59.9929Z" fill="#00263A"/>
<path id="Vector_25" d="M65.0042 6.07833C64.8122 6.14716 64.5849 6.18237 64.3224 6.18237C63.5126 6.18237 62.9923 5.79984 62.7603 5.03475L63.0643 4.93071C63.2373 5.56294 63.6566 5.87826 64.3224 5.87826C64.7018 5.87826 65.001 5.78542 65.2188 5.59655C65.4412 5.40449 65.5516 5.12278 65.5516 4.75306C65.5516 4.40252 65.4205 4.11121 65.1595 3.87913C65.0907 3.8151 64.9834 3.74309 64.841 3.66466C64.6984 3.58622 64.5144 3.49659 64.2935 3.39895C63.8742 3.2117 63.5876 3.04843 63.434 2.91079C63.178 2.68829 63.0483 2.39539 63.0483 2.03046C63.0483 1.66553 63.1796 1.37103 63.4404 1.14854C63.6966 0.921258 64.0135 0.807617 64.388 0.807617C65.009 0.807617 65.4492 1.0397 65.7053 1.50387L65.4173 1.63031C65.3181 1.46706 65.1996 1.34702 65.0619 1.26698C64.889 1.15814 64.665 1.10373 64.388 1.10373C64.0967 1.10373 63.855 1.18535 63.663 1.34862C63.4565 1.52147 63.3524 1.74875 63.3524 2.03046C63.3524 2.28175 63.4612 2.50264 63.679 2.68989C63.8022 2.78913 64.0487 2.92198 64.4185 3.09004C64.6506 3.19408 64.8506 3.29652 65.0187 3.39735C65.1867 3.49819 65.3227 3.60063 65.4251 3.70467C65.7117 3.98637 65.8542 4.33689 65.8542 4.75625C65.8542 5.4269 65.5708 5.86865 65.0026 6.08153" fill="#00263A"/>
<path id="Vector_26" d="M72.8454 5.32494C72.402 5.85793 71.821 6.12524 71.1055 6.12524H69.3433V0.836914H71.1055C71.8162 0.836914 72.3941 1.10261 72.8373 1.6372C73.2567 2.13498 73.4664 2.74801 73.4664 3.47307C73.4664 4.19813 73.2599 4.82076 72.8438 5.32334M72.6214 1.84369C72.2371 1.36991 71.7298 1.13302 71.1039 1.13302H69.6377V5.81951H71.1039C71.6465 5.81951 72.1187 5.61785 72.5172 5.2129C72.9462 4.77915 73.1607 4.19813 73.1607 3.47307C73.1607 2.82644 72.9815 2.28384 72.6196 1.84369" fill="#00263A"/>
<path id="Vector_27" d="M77.8571 6.12338L77.2505 4.53879H74.8448L74.2302 6.12338H73.9341L76.0436 0.666992L78.1612 6.12338H77.8571ZM76.0436 1.43687L74.9633 4.23468H77.1256L76.0452 1.43687H76.0436Z" fill="#00263A"/>
<path id="Vector_28" d="M79.2785 1.63691V6.12333H78.9824V0.799805L82.9295 5.42709V0.836619H83.2336V6.21297L79.2785 1.63691Z" fill="#00263A"/>
<path id="Vector_29" d="M88.6674 5.81253C88.3904 6.0142 88.0159 6.13745 87.5422 6.18227C87.4877 6.18706 87.4285 6.19026 87.3645 6.19347C87.3005 6.19507 87.2332 6.19667 87.1645 6.19667C86.3642 6.19667 85.7127 5.94537 85.2102 5.44119C84.7011 4.9322 84.4482 4.27917 84.4482 3.47888C84.4482 2.67858 84.6995 2.02715 85.2038 1.52457C85.7111 1.01559 86.3658 0.762695 87.1661 0.762695C87.6206 0.762695 88.0303 0.82992 88.3953 0.962769C88.6129 1.046 88.8226 1.16764 89.0242 1.3245V1.70223C88.8178 1.52938 88.5904 1.39172 88.3424 1.28769C87.9679 1.13403 87.5742 1.0588 87.1661 1.0588C86.465 1.0588 85.8871 1.28609 85.4341 1.74066C84.9796 2.19522 84.7523 2.77463 84.7523 3.48048C84.7523 4.18634 84.9764 4.76414 85.4261 5.21231C85.8807 5.66687 86.4602 5.89416 87.1661 5.89416C87.6046 5.89416 87.9871 5.81573 88.3137 5.65727C88.5009 5.56285 88.7378 5.41238 89.0242 5.20591V5.55483L88.669 5.81413L88.6674 5.81253Z" fill="#00263A"/>
<path id="Vector_30" d="M89.8296 6.12301V0.837891H92.3698V1.1404H90.1337V3.0659H92.3698V3.39083H90.1337V5.8189H92.3698V6.12301H89.8296Z" fill="#00263A"/>
<path id="Vector_31" d="M136.651 0.754883H123.515C118.898 0.754883 115.156 4.49704 115.156 9.11311V18.4397L119.567 21.9434L132.502 19.7553V10.5008L131.551 10.7025L122.254 12.6888L122.752 18.1628L129.42 16.7992L130.082 15.0305L124.045 16.7992L124.642 15.0769L131.11 13.3852L130.614 18.4605L119.666 18.9582L119.966 9.70373L134.793 7.31566L136.386 24.0338H119.069L115.156 20.2676V22.2491C115.156 26.8667 118.898 30.6089 123.515 30.6089H136.651C141.269 30.6089 145.009 26.8667 145.009 22.2491V9.11311C145.009 4.49704 141.269 0.754883 136.651 0.754883Z" fill="url(#paint0_linear_7_5355)"/>
</g>
</g>
</g>
</g>
<defs>
<linearGradient id="paint0_linear_7_5355" x1="115.156" y1="15.6818" x2="145.009" y2="15.6818" gradientUnits="userSpaceOnUse">
<stop stop-color="#015A7C"/>
<stop offset="0.84" stop-color="#00B0AD"/>
<stop offset="1" stop-color="#00B0AD"/>
</linearGradient>
<clipPath id="clip0_7_5355">
<rect width="178.709" height="32.0075" fill="white"/>
</clipPath>
</defs>
</svg>
